# AST/ASF file generated using VICON BodyLanguage
# -----------------------------------------------
:version 1.10
:name VICON
:units
  mass 1.0
  length 0.45
  angle deg
:documentation
   .ast/.asf automatically generated from VICON data using
   VICON BodyBuilder and BodyLanguage model FoxedUp or BRILLIANT.MOD
:root
   order TX TY TZ RX RY RZ
   axis XYZ
   position 0 0 0  
   orientation 0 -0 0 
:bonedata
  begin
     id 1 
     name lhipjoint
     direction 0.432694 -0.693742 0.575759 
     length 2.19277 
     axis 0 -0 0  XYZ
  end
  begin
     id 2 
     name lfemur
     direction 0.34202 -0.939693 0  
     length 6.69022  
     axis 0 -0 20  XYZ
    dof rx ry rz
    limits (-160.0 20.0)
           (-70.0 70.0)
           (-60.0 70.0)
  end
  begin
     id 3 
     name ltibia
     direction 0.34202 -0.939693 0   
     length 6.50337   
     axis 0 -0 20   XYZ
    dof rx
    limits (-10.0 170.0)
  end
  begin
     id 4 
     name lfoot
     direction 0.158999 -0.435969 0.885805   
     length 2.70564   
     axis -90 -1.13533e-015 20   XYZ
    dof rx rz
    limits (-45.0 90.0)
           (-70.0 20.0)
  end
  begin
     id 5 
     name ltoes
     direction -0.00592919 0.00964381 0.999936   
     length 1.29929   
     axis -90 -1.13533e-015 20   XYZ
    dof rx
    limits (-90.0 20.0)
  end
  begin
     id 6 
     name rhipjoint
     direction -0.414359 -0.700339 0.581234   
     length 2.17212  
     axis 0 -0 0  XYZ 
  end
  begin
     id 7 
     name rfemur
     direction -0.34202 -0.939693 0   
     length 7.17659   
     axis 0 -0 -20   XYZ
    dof rx ry rz
    limits (-160.0 20.0)
           (-70.0 70.0)
           (-70.0 60.0)
  end
  begin
     id 8 
     name rtibia
     direction -0.34202 -0.939693 0   
     length 6.36669   
     axis 0 -0 -20   XYZ
    dof rx
    limits (-10.0 170.0)
 end
 begin
     id 9 
     name rfoot
     direction -0.137064 -0.37658 0.916188   
     length 2.22351  
     axis -90 1.13533e-015 -20   XYZ
    dof rx rz
    limits (-45.0 90.0)
           (-20.0 70.0)
  end
  begin
     id 10 
     name rtoes
     direction -0.000784077 -0.00289101 0.999996   
     length 1.09522   
     axis -90 1.13533e-015 -20   XYZ
    dof rx
    limits (-90.0 20.0)
  end
  begin
     id 11 
     name lowerback
     direction -0.0176242 0.984912 -0.172157   
     length 1.65301   
     axis 0 -0 0   XYZ
    dof rx ry rz
    limits (-20.0 45.0)
           (-30.0 30.0)
           (-30.0 30.0)
  end
  begin
     id 12 
     name upperback
     direction -0.00218128 0.998776 -0.0494072   
     length 1.67776   
     axis 0 -0 0   XYZ
    dof rx ry rz
    limits (-20.0 45.0)
           (-30.0 30.0)
           (-30.0 30.0)
  end
  begin
     id 13 
     name thorax
     direction 0.00544186 0.999658 0.0255711   
     length 1.72293   
     axis 0 -0 0   XYZ
    dof rx ry rz
    limits (-20.0 45.0)
           (-30.0 30.0)
           (-30.0 30.0)
  end
  begin
     id 14 
     name lowerneck
     direction -0.105325 0.983841 0.144785   
     length 2.14226   
     axis 0 -0 0   XYZ
    dof rx ry rz
    limits (-20.0 45.0)
           (-30.0 30.0)
           (-30.0 30.0)
  end
  begin
     id 15 
     name upperneck
     direction 0.0547957 0.988053 -0.144041   
     length 2.17508   
     axis 0 -0 0   XYZ
    dof rx ry rz
    limits (-20.0 45.0)
           (-30.0 30.0)
           (-30.0 30.0)
  end
  begin
     id 16
     name head
     direction 0.0247488 0.997534 -0.0656813  
     length 2.20048  
     axis 0 -0 0   XYZ
    dof rx ry rz
    limits (-20.0 45.0)
           (-30.0 30.0)
           (-30.0 30.0)
  end
  begin
     id 17 
     name lclavicle
     direction 0.820559 0.567247 -0.0701026  
     length 4.09615  
     axis 0 -0 0   XYZ
    dof ry rz
    limits (-20.0 10.0)
           (0.0 20.0)
  end
  begin
     id 18 
     name lhumerus
     direction 0.999977 -0.0067566 -9.96392e-005   
     length 4.59333   
     axis -180 -30 -90   XYZ
    dof rx ry rz
    limits (-60.0 90.0)
           (-90.0 90.0)
           (-90.0 90.0)
  end
  begin
     id 19
     name lradius
     direction 1 -4.48982e-011 -2.53425e-027   
     length 2.81151   
     axis -180 -30 -90   XYZ
    dof rx
    limits (-10.0 170.0)
  end
  begin
     id 20
     name lwrist
     direction 1 -4.48939e-011 -7.39254e-028   
     length 1.40576   
     axis 2.56395e-016 90 90   XYZ
    dof ry
    limits (-180.0 0.0)
 end
  begin
     id 21 
     name lhand
     direction 1 -4.48939e-011 -1.47851e-027   
     length 0.895651   
     axis 9.43423e-016 90 90   XYZ
    dof rx rz
    limits (-90.0 90.0)
           (-45.0 45.0)
  end
  begin
     id 22 
     name lfingers
     direction 1 -4.48978e-011 -2.95702e-027   
     length 0.722097   
     axis 1.88685e-015 90 90   XYZ
    dof rx
    limits (0.0 90.0)
  end
  begin
     id 23
     name lthumb
     direction 0.707107 -6.34931e-011 0.707107   
     length 1.03679   
     axis -90 45 -9.86935e-015   XYZ
    dof rx rz
    limits (-45.0 45.0)
           (-45.0 45.0)
  end
  begin
     id 24 
     name rclavicle
     direction -0.831414 0.553102 -0.0531864   
     length 4.24872  
     axis 0 -0 0   XYZ 
    dof ry rz
    limits (-10.0 20.0)
           (-20.0 0.0)
  end
  begin
     id 25 
     name rhumerus
     direction -0.999916 -0.000939607 0.0129331  
     length 4.74834   
     axis -180 30 90   XYZ
    dof rx ry rz
    limits (-90.0 60.0)
           (-90.0 90.0)
           (-90.0 90.0)
  end
  begin
     id 26 
     name rradius
     direction -1 -4.48956e-011 -1.31752e-027   
     length 2.79907   
     axis -180 30 90   XYZ
    dof rx
    limits (-10.0 170.0)
  end
  begin
     id 27 
     name rwrist
     direction -1 -4.4897e-011 -7.39254e-028   
     length 1.39954   
     axis 2.56395e-016 -90 -90   XYZ
    dof ry
    limits (-180.0 0.0)
  end
  begin
     id 28
     name rhand
     direction -0.999997 -0.00250697 0.000800838   
     length 0.953304   
     axis 9.43423e-016 -90 -90   XYZ
    dof rx rz
    limits (-90.0 90.0)
           (-45.0 45.0)
  end
  begin
     id 29
     name rfingers
     direction -1 -4.48954e-011 -2.95702e-027   
     length 0.763342   
     axis 1.88685e-015 -90 -90   XYZ
    dof rx
    limits (0.0 90.0)
  end
  begin
     id 30
     name rthumb
     direction -0.709701 -0.00217037 0.7045   
     length 1.10115   
     axis -90 -45 9.86935e-015   XYZ
    dof rx rz
    limits (-45.0 45.0)
           (-45.0 45.0)
  end
:hierarchy
  begin
    root lhipjoint rhipjoint lowerback
    lhipjoint lfemur
    lfemur ltibia
    ltibia lfoot
    lfoot ltoes
    rhipjoint rfemur
    rfemur rtibia
    rtibia rfoot
    rfoot rtoes
    lowerback upperback
    upperback thorax
    thorax lowerneck lclavicle rclavicle
    lowerneck upperneck
    upperneck head
    lclavicle lhumerus
    lhumerus lradius
    lradius lwrist
    lwrist lhand lthumb
    lhand lfingers
    rclavicle rhumerus
    rhumerus rradius
    rradius rwrist
    rwrist rhand rthumb
    rhand rfingers
  end

#!OML:ASF G:\ViconDB\ViconDB\414\test\team2\shane.ASF
:FULLY-SPECIFIED
:DEGREES
66
root -3.12825 14.1812 -36.959 30.5631 -3.12163 -19.4375
lowerback 22.9752 5.918 -9.11492
upperback 13.3628 5.55311 -5.03787
thorax 1.77347 2.35384 -1.51928
lowerneck -18.7948 -5.95253 -13.5433
upperneck 21.3969 -1.73223 -8.79144
head 10.234 -2.83608 -1.18611
rclavicle -4.77083e-014 0
rhumerus 65.4215 18.0878 -48.5258
rradius 26.9466
rwrist 46.7218
rhand -32.4471 -12.5135
rfingers 7.12502
rthumb -5.68041 -42.4173
lclavicle -4.77083e-014 0
lhumerus 41.4502 -22.0841 13.4474
lradius 26.2848
lwrist 12.7298
lhand -47.3385 17.204
lfingers 7.12502
lthumb -20.0327 46.1913
rfemur -8.36933 -26.0246 27.8391
rtibia 36.3615
rfoot -28.3025 -26.6837
rtoes -24.5796
lfemur -87.2928 21.5841 -21.0993
ltibia 87.4451
lfoot -30.8104 -14.4914
ltoes 4.48815
67
root -3.09038 14.1492 -36.676 33.924 1.34785 -19.5982
lowerback 22.7093 5.11262 -8.92108
upperback 13.0601 4.63017 -5.27529
thorax 1.61929 1.94713 -1.66101
lowerneck -19.2912 -6.14566 -13.411
upperneck 21.8206 -2.26846 -7.2783
head 10.4761 -2.9301 -0.767263
rclavicle 2.54444e-014 -1.19271e-014
rhumerus 65.4077 16.1124 -50.2343
rradius 26.6166
rwrist 46.5253
rhand -32.5348 -12.9809
rfingers 7.12502
rthumb -5.76511 -42.8825
lclavicle 2.54444e-014 -1.19271e-014
lhumerus 44.1104 -19.4317 11.0188
lradius 26.5876
lwrist 13.9433
lhand -47.8207 18.6502
lfingers 7.12502
lthumb -20.4961 47.5884
rfemur -10.4462 -28.9025 31.2567
rtibia 33.6486
rfoot -26.0049 -23.8668
rtoes -24.9607
lfemur -89.6493 17.9246 -21.1142
ltibia 86.7723
lfoot -37.457 -7.27037
ltoes -4.20066
68
root -3.00998 14.1702 -36.3053 34.8927 2.22596 -20.7894
lowerback 23.0455 5.26818 -9.02243
upperback 13.0929 4.75025 -5.4343
thorax 1.50331 2.00561 -1.82927
lowerneck -19.6902 -6.21759 -13.2209
upperneck 22.2064 -2.4243 -6.82902
head 10.689 -2.96081 -0.678808
rclavicle -4.77083e-014 6.32135e-014
rhumerus 65.7368 15.4179 -49.9829
rradius 26.7395
rwrist 45.2289
rhand -32.49 -13.0646
rfingers 7.12502
rthumb -5.72179 -42.9673
lclavicle -4.77083e-014 6.32135e-014
lhumerus 44.7109 -18.1651 10.2345
lradius 27.4078
lwrist 15.2724
lhand -48.4008 18.7405
lfingers 7.12502
lthumb -21.0535 47.6177
rfemur -8.86439 -28.7784 31.5934
rtibia 30.9041
rfoot -22.9774 -20.6123
rtoes -26.9487
lfemur -88.0835 16.865 -18.7816
ltibia 86.5762
lfoot -39.3509 -5.70418
ltoes -2.93045
69
root -2.91843 14.2221 -35.9599 35.1639 1.59464 -21.7315
lowerback 25.014 6.18427 -10.8426
upperback 12.9668 5.16453 -5.79598
thorax 0.362204 2.14456 -1.49591
lowerneck -20.5543 -6.30327 -13.0983
upperneck 22.8902 -2.48686 -6.32889
head 11.1045 -2.97113 -0.568549
rclavicle 2.54444e-014 -7.51406e-014
rhumerus 66.7179 14.7856 -48.577
rradius 26.7562
rwrist 43.6591
rhand -32.4075 -12.9559
rfingers 7.12502
rthumb -5.64217 -42.8608
lclavicle 2.54444e-014 -7.51406e-014
lhumerus 45.4391 -16.3268 9.72793
lradius 27.5174
lwrist 15.6437
lhand -48.4569 18.4947
lfingers 7.12502
lthumb -21.1074 47.3658
rfemur -6.82673 -28.1204 30.2873
rtibia 28.6418
rfoot -18.3822 -17.2904
rtoes -30.2311
lfemur -86.0009 15.8807 -16.0778
ltibia 87.0309
lfoot -40.2194 -3.82359
ltoes -1.67892
70
root -2.83814 14.1947 -35.6622 36.6669 3.51149 -22.0736
lowerback 25.9244 5.64122 -10.8738
upperback 12.9637 4.34942 -5.95331
thorax -0.0156288 1.77097 -1.50199
lowerneck -21.968 -6.45443 -13.1056
upperneck 23.6834 -2.52168 -5.74982
head 11.6768 -2.98039 -0.422217
rclavicle 9.54166e-015 -4.79071e-014
rhumerus 68.2754 13.9742 -46.5208
rradius 26.9247
rwrist 42.3488
rhand -32.5489 -12.9252
rfingers 7.12502
rthumb -5.77866 -42.8264
lclavicle 9.54166e-015 -4.79071e-014
lhumerus 45.671 -13.9216 9.86215
lradius 27.5615
lwrist 14.5115
lhand -47.9607 18.2086
lfingers 7.12502
lthumb -20.6307 47.1321
rfemur -6.4733 -28.4215 30.6102
rtibia 26.4151
rfoot -15.5164 -11.7166
rtoes -32.1757
lfemur -86.6058 13.1385 -12.8723
ltibia 87.7285
lfoot -40.6884 -3.12806
ltoes -3.0296
71
root -2.7509 14.2089 -35.3485 38.4616 5.3951 -22.1278
lowerback 26.5613 5.38607 -11.5021
upperback 13.0108 3.81956 -5.92637
thorax -0.249143 1.49823 -1.02544
lowerneck -22.9358 -6.70602 -12.6436
upperneck 23.7293 -2.98317 -5.31685
head 11.8736 -3.10465 -0.439572
rclavicle -6.04305e-014 1.24551e-013
rhumerus 69.6331 12.263 -44.6399
rradius 26.9086
rwrist 41.7757
rhand -32.491 -12.1232
rfingers 7.12502
rthumb -5.72275 -42.0259
lclavicle -6.04305e-014 1.24551e-013
lhumerus 46.6906 -11.6223 9.29773
lradius 27.5457
lwrist 14.3651
lhand -47.7176 18.3265
lfingers 7.12502
lthumb -20.3971 47.2753
rfemur -6.77456 -28.5281 30.6618
rtibia 24.9726
rfoot -12.6672 -6.09101
rtoes -32.5074
lfemur -87.5631 10.5561 -9.95197
ltibia 88.217
lfoot -40.5172 -3.34724
ltoes -2.64588
72
root -2.65096 14.2472 -35.0172 40.3712 6.24962 -22.3737
lowerback 27.0478 5.38838 -12.7049
upperback 12.9882 3.45779 -6.24505
thorax -0.47196 1.2941 -0.654764
lowerneck -23.8031 -6.91582 -12.5546
upperneck 23.2724 -3.57758 -4.0231
head 11.8758 -3.18755 -0.0862091
rclavicle -2.54444e-014 -1.55052e-014
rhumerus 71.2441 10.178 -44.0982
rradius 26.4268
rwrist 43.3492
rhand -33.0967 -11.4792
rfingers 7.12502
rthumb -6.3076 -41.3653
lclavicle -2.54444e-014 -1.55052e-014
lhumerus 47.2801 -9.30517 7.71863
lradius 27.6461
lwrist 14.612
lhand -47.7144 18.8002
lfingers 7.12502
lthumb -20.3939 47.7493
rfemur -7.20352 -27.6971 29.9892
rtibia 24.4854
rfoot -10.3356 0.783017
rtoes -31.469
lfemur -88.0144 8.98328 -7.70418
ltibia 88.3842
lfoot -41.1229 -2.0351
ltoes -4.35271
